<svg xmlns="http://www.w3.org/2000/svg" width="203" height="104" viewBox="0 0 203 104"><g><g><path fill="#fff" d="M110.623 61.345c-9.376 19.69-17.883 42.574-17.883 42.574s-3.907 1.122-5.817-5.527c-2.778-10.017 26.044-57.772 26.044-57.772s-55.3 59.672-78.48 46.891c-15.539-8.636 2.605-39.292 2.605-39.292s-8.855 2.936-18.491 7.6c-8.074 3.972-17.19 9.93-17.19 9.93s-2.864-5.44-.433-8.808c5.035-6.736 41.236-17.444 41.236-17.444S67.564-3.335 97.774.205c7.467.864 4.081 19.43-1.214 21.849-5.21 2.417-7.64 1.036-7.64 1.036s11.546-19.948 7.9-19.69C71.123 5.474 53.066 36.217 53.066 36.217s20.228-4.577 39.5-6.563c18.665-1.814 35.767-3.195 36.375-1.123.608 2.159-9.723 14.853-18.318 32.815zm-33.25-25.13c-14.931 2.592-29.43 7.6-29.43 7.6s-24.22 39.983-6.857 42.573c17.883 2.85 75.875-54.576 75.875-54.576s-20.575 1.122-39.587 4.404zm51.473 36.356c-2.865 0-2.865-1.295-2.865-1.295s-.781 1.209-1.042 4.145c-.26 3.282.26 5.268 2.518 4.75 2.43-.432 4.861-2.332 7.118-4.145 4.862-3.886 7.553-7.686 7.553-7.686s0 2.072-1.563 5.009c-2.69 4.836-8.941 11.053-14.584 11.053-2.084 0-6.945-1.468-7.64-8.376-.694-4.75 1.39-13.904 8.421-23.403 2.084-2.159 6.598-6.13 10.418-5.613 3.299.346 6.424 3.109 6.945 4.145 4.254 7.859-12.501 21.416-15.28 21.416zm11.72-22.193s-3.386.691-7.467 5.44c-4.253 5.01-6.337 11.831-6.337 11.831s3.473.605 11.807-11.053c1.996-3.54 1.996-6.218 1.996-6.218zm35.07-33.16c-4.949 4.922-11.2 19.689-11.2 19.689s2.778-.26 7.727.259c.315.032.592.128.835.271 3.23-8.414 12.258-15.351 18.435-16.852 9.983-2.504 10.678 2.332 11.025 7.168.52 6.304-22.311 40.846-29.864 53.195 6.424-2.159 18.925-3.454 27.433-.173 5.209 1.986 1.997 7.34 1.997 7.34l-5.817-1.381c-16.494-3.8-24.915-.087-29.256 2.418l-.347.432c-1.476-.605-2.605-1.641-2.865-2.937-1.823-9.24 36.288-57.858 33.51-63.385-.608-1.295-4.167-.431-10.157 3.8-4.08 3.023-8.334 8.981-10.157 15.803-1.303 4.836-.782 7.168-.782 7.168s-4.6-.777-4.34-7.168c.018-.37.049-.74.093-1.109-1.103.026-2.598.074-4.605.16-6.337.258-5.73.431-5.73.431s-4.167 11.054-7.292 21.416c-2.691 9.068-3.386 16.58-1.389 17.099 3.82.95 10.678-10.277 11.807-12.522.347-.604.781 2.418-1.476 6.563-1.563 2.764-8.247 11.14-13.543 9.24-8.247-3.022-3.212-23.834 4.428-41.796-2.344.173-5.296.26-6.338-.173-1.65-.777-1.128-4.663-1.128-4.663l9.81-.518c4.6-9.586 9.636-17.703 13.282-20.553 4.862-4.058 8.942-2.245 10.07-1.554-.52-.173-1.649 0-4.167 2.332zm4.166-2.332c.26.086.348.26.348.26z"/></g></g></svg>